# xmcd CD database file
#
# Track frame offsets:
#	150
#	24138
#	43192
#
# Disc length: 791 seconds
#
# Revision: 0
# Processed by: cddbd v1.5PL3 Copyright (c) Steve Scherf et al.
# Submitted via: CDex 1.51
#
DISCID=19031503
DTITLE=ナポレナポレ - 雨の日曜
DYEAR=1900
DGENRE=Pop
TTITLE0=雨の日曜
TTITLE1=ケイコク
TTITLE2=Dog Days
EXTD=
EXTT0=
EXTT1=
EXTT2=
PLAYORDER=
